# xmcd
#
# Track frame offsets: 
#        150
#        16565
#        31342
#        45827
#        61905
#        80610
#        96867
#        119235
#        132090
#        146542
#        161592
#        177985
#        196077
#        213572
#        228575
#
# Disc length: 3325 seconds
#
# Revision: 1
# Processed by: cddbd v1.5.2PL0 Copyright (c) Steve Scherf et al.
# Submitted via: ExactAudioCopy v0.95b4
#
DISCID=c50cfb0f
DTITLE=Dinah Washington - sings Bessie Smith
DYEAR=1958
DGENRE=Vocal Jazz
TTITLE0=After You've Gone
TTITLE1=Send Me to the 'Lectric Chair
TTITLE2=Jailhouse Blues
TTITLE3=Trombone Butter (aka Trombone Cholly)
TTITLE4=You've Been a Good Ole Wagon
TTITLE5=Careless Love
TTITLE6=Backwater Blues
TTITLE7=If I Could Be With You One Hour Tonight
TTITLE8=Me and My Gin
TTITLE9=Fine Fat Daddy
TTITLE10=Trombone Butter (alternative take)
TTITLE11=Careless Love (master take in mono)
TTITLE12=Send Me to the 'Lectric Chair (live)
TTITLE13=Me and My Gin (live)
TTITLE14=Backwater Blues (live)
EXTD=
EXTT0=
EXTT1=
EXTT2=
EXTT3=
EXTT4=
EXTT5=
EXTT6=
EXTT7=
EXTT8=
EXTT9=
EXTT10=
EXTT11=
EXTT12=
EXTT13=
EXTT14=
PLAYORDER=
